<svg width="208" height="50" viewBox="0 0 208 50" fill="none" xmlns="http://www.w3.org/2000/svg">
<path d="M207.5 35.8863L197.154 30.7588L197.886 42.2825L207.5 35.8863ZM1.73279 49.2401C2.13929 48.8023 2.57748 48.3784 3.04647 47.9682L1.72971 46.4628C1.21156 46.9161 0.723341 47.3879 0.267206 47.8792L1.73279 49.2401ZM6.06104 45.767C7.08183 45.1383 8.1892 44.5513 9.37673 44.0044L8.54002 42.1878C7.28836 42.7643 6.10914 43.3885 5.01222 44.0641L6.06104 45.767ZM12.8975 42.579C14.0602 42.165 15.2773 41.781 16.5436 41.4256L16.0032 39.5C14.6973 39.8665 13.4364 40.2641 12.2266 40.6949L12.8975 42.579ZM20.2682 40.4918C21.4926 40.2183 22.7524 39.9672 24.0436 39.7372L23.6929 37.7682C22.3754 38.0029 21.0871 38.2596 19.8322 38.5399L20.2682 40.4918ZM27.8536 39.131C29.1093 38.9536 30.3885 38.7935 31.6881 38.6497L31.4682 36.6619C30.15 36.8077 28.8507 36.9703 27.5738 37.1507L27.8536 39.131ZM35.54 38.2751C36.8137 38.1674 38.1027 38.0736 39.4042 37.9927L39.2803 35.9966C37.9647 36.0783 36.6608 36.1731 35.3715 36.2822L35.54 38.2751ZM43.2763 37.7911C44.5584 37.7367 45.8495 37.6936 47.1471 37.661L47.0968 35.6616C45.7883 35.6945 44.4857 35.738 43.1915 35.7929L43.2763 37.7911ZM51.0225 37.594C52.3129 37.5815 53.6071 37.5784 54.9025 37.5838L54.9109 35.5838C53.6066 35.5784 52.3032 35.5815 51.0031 35.5941L51.0225 37.594ZM58.7844 37.6248C60.0802 37.6465 61.3747 37.6759 62.6655 37.7123L62.7218 35.7131C61.4238 35.6765 60.1216 35.6469 58.8179 35.6251L58.7844 37.6248ZM66.5435 37.8419C67.844 37.892 69.138 37.9484 70.423 38.0102L70.519 36.0125C69.2281 35.9504 67.9277 35.8938 66.6205 35.8434L66.5435 37.8419ZM74.3061 38.2142C75.6136 38.2885 76.9085 38.3677 78.188 38.4507L78.3175 36.4549C77.033 36.3715 75.7327 36.2921 74.4196 36.2174L74.3061 38.2142ZM82.0677 38.7168C83.3818 38.8117 84.6754 38.9098 85.9451 39.01L86.1024 37.0162C84.8286 36.9157 83.5306 36.8173 82.2118 36.722L82.0677 38.7168ZM89.821 39.3276C91.1468 39.4401 92.44 39.5537 93.6962 39.6669L93.8756 37.6749C92.6163 37.5615 91.3197 37.4476 89.9901 37.3348L89.821 39.3276ZM97.571 40.0244C98.9183 40.1515 100.211 40.2759 101.441 40.3955L101.635 38.4049C100.403 38.2852 99.1085 38.1606 97.7588 38.0333L97.571 40.0244ZM105.29 40.7715C106.719 40.9111 108.03 41.0382 109.207 41.1475L109.392 39.156C108.22 39.0472 106.913 38.9206 105.485 38.781L105.29 40.7715ZM113.117 41.4748C113.912 41.5285 114.575 41.5595 115.078 41.5595V39.5595C114.643 39.5595 114.034 39.5322 113.252 39.4794L113.117 41.4748ZM115.078 41.5595C115.807 41.5595 116.545 41.5387 117.287 41.4983L117.179 39.5013C116.471 39.5398 115.77 39.5595 115.078 39.5595V41.5595ZM121.675 41.0455C123.11 40.8308 124.554 40.5521 125.995 40.2155L125.541 38.2679C124.149 38.5929 122.758 38.8612 121.379 39.0675L121.675 41.0455ZM130.231 39.0604C131.627 38.625 133.011 38.1395 134.371 37.6095L133.645 35.7459C132.327 36.2595 130.987 36.7296 129.635 37.151L130.231 39.0604ZM138.401 35.8765C139.742 35.2437 141.046 34.569 142.303 33.8582L141.318 32.1174C140.106 32.8033 138.845 33.4554 137.547 34.0678L138.401 35.8765ZM146.039 31.54C147.292 30.6863 148.474 29.7952 149.568 28.874L148.28 27.344C147.242 28.2179 146.115 29.0683 144.913 29.8872L146.039 31.54ZM152.783 25.7953C153.841 24.6264 154.754 23.4192 155.487 22.1858L153.768 21.1638C153.113 22.265 152.284 23.3661 151.3 24.4531L152.783 25.7953ZM157.236 17.9167C157.409 17.1352 157.5 16.348 157.5 15.5595H155.5C155.5 16.1933 155.427 16.8355 155.283 17.4846L157.236 17.9167ZM157.5 15.5595C157.5 14.8055 157.468 14.0809 157.405 13.3851L155.413 13.5652C155.47 14.1977 155.5 14.862 155.5 15.5595H157.5ZM156.536 9.15853C156.029 7.67828 155.331 6.38773 154.465 5.27915L152.889 6.51034C153.61 7.43342 154.205 8.52456 154.644 9.80672L156.536 9.15853ZM151.139 2.33881C149.908 1.59201 148.548 1.0429 147.098 0.665322L146.594 2.60073C147.882 2.93622 149.058 3.41569 150.102 4.04881L151.139 2.33881ZM142.857 0.0352352C141.485 -0.0360761 140.065 0.00241047 138.618 0.136589L138.802 2.12804C140.166 2.00163 141.489 1.96682 142.754 2.03254L142.857 0.0352352ZM134.452 0.763535C133.104 1.03963 131.746 1.38504 130.394 1.79055L130.969 3.70626C132.268 3.31668 133.568 2.9862 134.853 2.72285L134.452 0.763535ZM126.442 3.14967C125.142 3.65382 123.859 4.20768 122.608 4.80308L123.467 6.60905C124.674 6.03465 125.912 5.50044 127.165 5.0144L126.442 3.14967ZM118.908 6.73672C117.672 7.44444 116.484 8.19009 115.362 8.96447L116.498 10.6104C117.572 9.86965 118.711 9.15381 119.902 8.47252L118.908 6.73672ZM112.035 11.514C110.904 12.4822 109.882 13.4809 109 14.4959L110.51 15.8077C111.318 14.878 112.267 13.9479 113.335 13.0334L112.035 11.514ZM106.543 18.0687C105.815 19.5202 105.408 21.0134 105.465 22.4908L107.464 22.4137C107.423 21.3572 107.711 20.2002 108.33 18.9654L106.543 18.0687ZM107.223 26.8252C107.693 27.3714 108.254 27.8851 108.908 28.3653L110.092 26.7539C109.546 26.3525 109.1 25.9398 108.74 25.5214L107.223 26.8252ZM108.908 28.3653C109.474 28.7814 110.079 29.1789 110.72 29.559L111.74 27.8388C111.15 27.489 110.6 27.1273 110.092 26.7539L108.908 28.3653ZM114.539 31.4605C115.782 31.9841 117.111 32.4684 118.514 32.9162L119.122 31.0109C117.768 30.5786 116.496 30.1146 115.315 29.6174L114.539 31.4605ZM122.569 34.0628C123.887 34.393 125.255 34.6988 126.664 34.9818L127.058 33.0209C125.676 32.7434 124.34 32.4445 123.055 32.1228L122.569 34.0628ZM130.775 35.7252C132.124 35.9445 133.504 36.1464 134.91 36.3319L135.172 34.3491C133.784 34.166 132.424 33.967 131.096 33.7511L130.775 35.7252ZM139.057 36.8257C140.423 36.9718 141.808 37.1043 143.208 37.2243L143.379 35.2316C141.992 35.1127 140.621 34.9815 139.27 34.8371L139.057 36.8257ZM147.358 37.5415C148.734 37.6345 150.12 37.7166 151.513 37.7887L151.616 35.7914C150.233 35.7198 148.858 35.6383 147.493 35.546L147.358 37.5415ZM155.67 37.9743C157.054 38.0266 158.442 38.0699 159.828 38.105L159.879 36.1056C158.5 36.0707 157.121 36.0277 155.745 35.9757L155.67 37.9743ZM163.986 38.1863C165.378 38.2057 166.764 38.2177 168.143 38.2228L168.151 36.2228C166.778 36.2177 165.398 36.2058 164.014 36.1865L163.986 38.1863ZM172.297 38.2185C173.696 38.2106 175.083 38.1963 176.452 38.1766L176.424 36.1768C175.059 36.1964 173.679 36.2106 172.286 36.2186L172.297 38.2185ZM180.612 38.0996C182.022 38.0678 183.41 38.0309 184.769 37.99L184.709 35.9909C183.354 36.0317 181.972 36.0685 180.567 36.1001L180.612 38.0996ZM188.918 37.8499C190.341 37.7969 191.724 37.7401 193.062 37.6812L192.974 35.6831C191.64 35.7419 190.261 35.7984 188.843 35.8513L188.918 37.8499ZM197.225 37.484C198.679 37.4104 200.061 37.3357 201.36 37.2621L201.247 35.2653C199.952 35.3387 198.574 35.4132 197.124 35.4865L197.225 37.484Z" fill="#3D3D3D"/>
</svg>
