<svg width="34" height="34" viewBox="0 0 34 34" fill="none" xmlns="http://www.w3.org/2000/svg">
	<path
		d="M28.2486 13.2835C27.4637 11.4403 26.2384 9.81793 24.6803 8.55884C23.1221 7.29974 21.2786 6.44239 19.3117 6.06205L21.0885 3.21927L19.2865 2.09302L16.942 5.84417C14.5539 5.85529 12.2214 6.56579 10.2326 7.88789C8.24383 9.20999 6.68596 11.0858 5.75145 13.2835C4.49973 13.3073 3.30731 13.8212 2.4305 14.7148C1.5537 15.6085 1.0625 16.8104 1.0625 18.0624C1.0625 19.3143 1.5537 20.5163 2.4305 21.4099C3.30731 22.3036 4.49973 22.8175 5.75145 22.8413C6.68991 25.0481 8.25673 26.93 10.2568 28.2529C12.2569 29.5758 14.602 30.2812 17 30.2812C19.398 30.2812 21.7431 29.5758 23.7432 28.2529C25.7433 26.93 27.3101 25.0481 28.2486 22.8413C29.5003 22.8175 30.6927 22.3036 31.5695 21.4099C32.4463 20.5163 32.9375 19.3143 32.9375 18.0624C32.9375 16.8104 32.4463 15.6085 31.5695 14.7148C30.6927 13.8212 29.5003 13.3073 28.2486 13.2835ZM30.0516 19.9224C29.5656 20.4195 28.9033 20.7049 28.2082 20.7167L26.8319 20.7429L26.2932 22.0095C25.518 23.8328 24.2236 25.3878 22.5712 26.4808C20.9187 27.5739 18.9813 28.1567 17 28.1567C15.0188 28.1567 13.0813 27.5739 11.4289 26.4808C9.77648 25.3878 8.48209 23.8328 7.70691 22.0095L7.16809 20.7429L5.79182 20.7167C5.09646 20.7037 4.43396 20.4183 3.9468 19.922C3.45964 19.4256 3.18671 18.7579 3.18671 18.0624C3.18671 17.3669 3.45964 16.6992 3.9468 16.2028C4.43396 15.7065 5.09646 15.4211 5.79182 15.4081L7.16809 15.3819L7.70691 14.1153C8.48211 12.292 9.77651 10.7371 11.4289 9.64403C13.0814 8.55101 15.0188 7.96821 17 7.96821C18.9813 7.96821 20.9187 8.55101 22.5711 9.64403C24.2236 10.7371 25.518 12.292 26.2932 14.1153L26.8319 15.3819L28.2082 15.4081C28.7268 15.4179 29.2312 15.5794 29.6591 15.8728C30.0869 16.1661 30.4194 16.5783 30.6155 17.0586C30.8116 17.5388 30.8628 18.066 30.7625 18.575C30.6623 19.0839 30.4152 19.5524 30.0516 19.9224Z"
		fill="#0f1f37" />
	<path
		d="M11.1562 15.4062H13.8125V18.0625H11.1562V15.4062ZM20.1875 15.4062H22.8438V18.0625H20.1875V15.4062ZM17 25.5C17.6976 25.5 18.3885 25.3626 19.033 25.0956C19.6775 24.8286 20.2632 24.4373 20.7565 23.944C21.2498 23.4507 21.6411 22.865 21.9081 22.2205C22.1751 21.576 22.3125 20.8851 22.3125 20.1875H11.6875C11.6875 20.8851 11.8249 21.576 12.0919 22.2205C12.3589 22.865 12.7502 23.4507 13.2435 23.944C14.2398 24.9403 15.591 25.5 17 25.5Z"
		fill="#0f1f37" />
</svg>