<svg width="27" height="20" viewBox="0 0 27 20" fill="none" xmlns="http://www.w3.org/2000/svg">
<path d="M5.33301 1.16675H10.667C11.0588 1.16678 11.4221 1.23024 11.7607 1.35425L11.9043 1.41089C12.2976 1.57848 12.6635 1.81047 13.0029 2.10913L13.334 2.40015L13.6641 2.10815C13.9185 1.88365 14.1882 1.69796 14.4727 1.54858L14.7617 1.41089C15.0936 1.27019 15.4499 1.18925 15.834 1.17065L16.001 1.16675H21.333C22.2519 1.16675 23.0275 1.46333 23.6836 2.06323L23.8135 2.18726C24.4962 2.87013 24.833 3.68689 24.833 4.66675V8.61597L24.9902 8.76343C25.3032 9.05902 25.5617 9.39178 25.7676 9.76245L25.8525 9.92358C26.059 10.3365 26.167 10.8037 26.167 11.3337V18.8337H24.5V16.1667H2.16699V18.8337H0.5V11.3337C0.5 10.8698 0.582279 10.4541 0.741211 10.0808L0.813477 9.92358C1.03157 9.4874 1.31903 9.10128 1.67676 8.76343L1.83301 8.61597V4.66675C1.83301 3.74789 2.12958 2.97226 2.72949 2.31616L2.85352 2.18726C3.53639 1.50439 4.35314 1.16682 5.33301 1.16675ZM4 9.49976C3.55903 9.49976 3.16211 9.63459 2.83301 9.90601L2.69629 10.031C2.38791 10.3405 2.21516 10.7198 2.17578 11.1462L2.16699 11.3318V14.4998H24.5V11.3337C24.5 10.8928 24.3651 10.4958 24.0938 10.1667L23.9688 10.03C23.6592 9.72156 23.2801 9.54786 22.8535 9.50854L22.668 9.49976H4ZM5.33301 2.83374C4.82938 2.83382 4.38369 3.0096 4.03027 3.36401C3.72171 3.67366 3.54805 4.05349 3.50879 4.48022L3.5 4.66577V7.83374H12.5V4.66675C12.5 4.22571 12.3652 3.82889 12.0938 3.49976L11.9688 3.36304C11.6592 3.05468 11.28 2.88185 10.8535 2.84253L10.668 2.83374H5.33301ZM16 2.83374C15.4961 2.83374 15.0498 3.00931 14.6963 3.36401C14.3877 3.67365 14.215 4.0535 14.1758 4.48022L14.167 4.66577V7.83374H23.167V4.66675C23.167 4.22578 23.0322 3.82886 22.7607 3.49976L22.6357 3.36304C22.3263 3.05466 21.9469 2.88191 21.5205 2.84253L21.335 2.83374H16Z" fill="#0F1F37" stroke="#0F1F37"/>
</svg>
