<svg width="114" height="111" viewBox="0 0 114 111" fill="none" xmlns="http://www.w3.org/2000/svg">
<path fill-rule="evenodd" clip-rule="evenodd" d="M114 55.477C114.003 64.8565 111.564 74.0836 106.913 82.297C102.262 90.5103 95.5498 97.442 87.4027 102.445C79.2557 107.448 69.9397 110.358 60.3245 110.906C50.7094 111.453 41.1086 109.618 32.4187 105.573C29.8852 104.331 26.9793 104.011 24.225 104.671L15.4826 106.954C13.9128 107.362 12.2604 107.36 10.6912 106.95C9.12213 106.539 7.69151 105.734 6.54298 104.615C5.39446 103.496 4.56845 102.102 4.14785 100.574C3.72725 99.0454 3.72687 97.4362 4.14674 95.9078L6.48374 87.3942C7.1615 84.7119 6.83301 81.8821 5.55749 79.4149C1.87369 71.8976 -0.0256501 63.6693 0.0002616 55.34C0.0261733 47.0106 1.97667 38.7937 5.70718 31.2983C9.43769 23.8029 14.8526 17.2211 21.5505 12.0409C28.2483 6.86062 36.0575 3.21471 44.3992 1.37335C52.7408 -0.468009 61.4011 -0.457598 69.738 1.40381C78.075 3.26522 85.8749 6.9299 92.5596 12.1262C99.2444 17.3226 104.643 23.9173 108.354 31.4217C112.066 38.926 113.995 47.1476 114 55.477ZM32.0625 62.4155C33.9522 62.4155 35.7644 61.6845 37.1006 60.3833C38.4368 59.0821 39.1875 57.3172 39.1875 55.477C39.1875 53.6368 38.4368 51.872 37.1006 50.5707C35.7644 49.2695 33.9522 48.5385 32.0625 48.5385C30.1728 48.5385 28.3606 49.2695 27.0244 50.5707C25.6882 51.872 24.9375 53.6368 24.9375 55.477C24.9375 57.3172 25.6882 59.0821 27.0244 60.3833C28.3606 61.6845 30.1728 62.4155 32.0625 62.4155ZM57 62.4155C58.8897 62.4155 60.7019 61.6845 62.0381 60.3833C63.3743 59.0821 64.125 57.3172 64.125 55.477C64.125 53.6368 63.3743 51.872 62.0381 50.5707C60.7019 49.2695 58.8897 48.5385 57 48.5385C55.1103 48.5385 53.2981 49.2695 51.9619 50.5707C50.6257 51.872 49.875 53.6368 49.875 55.477C49.875 57.3172 50.6257 59.0821 51.9619 60.3833C53.2981 61.6845 55.1103 62.4155 57 62.4155ZM81.9375 62.4155C83.8272 62.4155 85.6394 61.6845 86.9756 60.3833C88.3118 59.0821 89.0625 57.3172 89.0625 55.477C89.0625 53.6368 88.3118 51.872 86.9756 50.5707C85.6394 49.2695 83.8272 48.5385 81.9375 48.5385C80.0478 48.5385 78.2356 49.2695 76.8994 50.5707C75.5632 51.872 74.8125 53.6368 74.8125 55.477C74.8125 57.3172 75.5632 59.0821 76.8994 60.3833C78.2356 61.6845 80.0478 62.4155 81.9375 62.4155Z" fill="#0F1F37"/>
</svg>
