<svg width="96" height="113" viewBox="0 0 96 113" fill="none" xmlns="http://www.w3.org/2000/svg">
<path fill-rule="evenodd" clip-rule="evenodd" d="M0.169789 41.334C1.13695 30.0704 6.46237 19.5686 15.0895 11.9121C23.7167 4.25554 35.0153 0.00367883 46.7438 0H49.2557C60.9842 0.00367883 72.2827 4.25554 80.9099 11.9121C89.5371 19.5686 94.8625 30.0704 95.8297 41.334C96.9029 53.9096 92.8741 66.3963 84.5903 76.1684L56.7215 109.014C55.6652 110.259 54.3347 111.263 52.8262 111.953C51.3178 112.642 49.6692 113 47.9997 113C46.3302 113 44.6816 112.642 43.1732 111.953C41.6648 111.263 40.3343 110.259 39.278 109.014L11.415 76.1684C3.12914 66.3971 -0.90184 53.9103 0.169789 41.334ZM47.9997 21.0116C40.6748 21.0116 33.6498 23.8156 28.4703 28.8068C23.2908 33.798 20.3809 40.5676 20.3809 47.6262C20.3809 54.6849 23.2908 61.4544 28.4703 66.4457C33.6498 71.4369 40.6748 74.2409 47.9997 74.2409C55.3247 74.2409 62.3496 71.4369 67.5292 66.4457C72.7087 61.4544 75.6185 54.6849 75.6185 47.6262C75.6185 40.5676 72.7087 33.798 67.5292 28.8068C62.3496 23.8156 55.3247 21.0116 47.9997 21.0116Z" fill="#0F1F37"/>
</svg>
