<svg width="24" height="24" viewBox="0 0 24 24" fill="none" xmlns="http://www.w3.org/2000/svg">
  <path d="M8.35 3C9.53 2.83 10.78 4.12 11.14 5.9C11.5 7.67 10.85 9.25 9.68 9.43C8.5 9.61 7.24 8.32 6.88 6.54C6.52 4.76 7.17 3.18 8.35 3Z" fill="#0F1F37"/>
  <path d="M14.69 3.15C15.97 3.38 16.85 5 16.45 6.79C16.05 8.58 14.68 9.88 13.41 9.65C12.13 9.43 11.25 7.8 11.65 6.01C12.05 4.22 13.42 2.93 14.69 3.15Z" fill="#0F1F37"/>
  <path d="M20.54 7.11C21.62 7.71 21.87 9.59 21.09 11.18C20.31 12.77 18.87 13.69 17.8 13.08C16.72 12.48 16.47 10.6 17.25 9C18.03 7.4 19.47 6.5 20.54 7.11Z" fill="#0F1F37"/>
  <path d="M3.31 8.13C4.13 7.26 5.87 7.68 7 9.04C8.14 10.4 8.39 12.24 7.57 13.1C6.75 13.97 5.01 13.56 3.88 12.2C2.74 10.84 2.49 9 3.31 8.13Z" fill="#0F1F37"/>
  <path d="M17.34 14.86C16.47 13.84 15.74 12.97 15.74 11.87C15.74 11.09 16.11 10.23 16.83 9.44C16.03 9.1 15.14 9 14.24 9C11.73 9 9.42 10.66 8.41 13.12C8.27 13.45 8.17 13.78 8.08 14.12C7.96 14.34 7.84 14.56 7.73 14.78L7.58 15.03C6.75 16.46 5.69 18.14 6.13 20.15C6.33 21.18 6.93 22.11 7.71 22.83C8.19 23.28 8.79 23.5 9.39 23.5C10.59 23.5 11.79 22.65 12.64 21.84C13.14 21.38 13.61 20.87 14.08 20.36C14.68 19.72 15.29 19.05 16.06 18.56C16.69 18.16 17.44 18 18.24 18C19.24 18 20.24 18.3 20.89 18.83C21.39 19.28 22 18.94 21.99 18.3C21.97 16.47 19.92 17.49 19.14 16.6C18.43 15.78 17.92 15.29 17.34 14.86Z" fill="#0F1F37"/>
</svg>
