<svg width="30" height="29" viewBox="0 0 30 29" fill="none" xmlns="http://www.w3.org/2000/svg">
	<path
		d="M26.25 9.17511H18.0658L19.7035 4.2649C19.9981 3.37823 19.8494 2.39532 19.3025 1.63699C18.7556 0.878652 17.869 0.42511 16.9342 0.42511H14.5833C14.1502 0.42511 13.7404 0.61761 13.4619 0.95011L6.60771 9.17511H2.91667C1.30813 9.17511 0 10.4832 0 12.0918V25.2168C0 26.8253 1.30813 28.1334 2.91667 28.1334H22.3227C22.9161 28.1315 23.4949 27.9495 23.9826 27.6115C24.4703 27.2735 24.844 26.7954 25.0542 26.2405L29.0748 15.5203C29.1358 15.3566 29.167 15.1832 29.1667 15.0084V12.0918C29.1667 10.4832 27.8585 9.17511 26.25 9.17511ZM2.91667 12.0918H5.83333V25.2168H2.91667V12.0918ZM26.25 14.7445L22.3227 25.2168H8.75V11.1614L15.2658 3.34178H16.9371L14.6592 10.1712C14.5852 10.3904 14.5646 10.624 14.599 10.8528C14.6334 11.0816 14.7219 11.2989 14.857 11.4866C14.9922 11.6744 15.1701 11.8272 15.3762 11.9325C15.5822 12.0377 15.8103 12.0923 16.0417 12.0918H26.25V14.7445Z"
		fill="#0f1f37" />
</svg>