<svg width="24" height="24" viewBox="0 0 24 24" fill="none" xmlns="http://www.w3.org/2000/svg">
  <path d="M12 4C13.1046 4 14 3.10457 14 2C14 0.89543 13.1046 0 12 0C10.8954 0 10 0.89543 10 2C10 3.10457 10.8954 4 12 4Z" fill="#0F1F37"/>
  <path d="M18 8H13V6.2C14.2 5.6 15 4.3 15 3C15 1.3 13.7 0 12 0C10.3 0 9 1.3 9 3C9 4.3 9.8 5.6 11 6.2V8H6C4.9 8 4 8.9 4 10V21C4 22.1 4.9 23 6 23H8V24H16V23H18C19.1 23 20 22.1 20 21V10C20 8.9 19.1 8 18 8ZM18 21H6V10H18V21Z" fill="#0F1F37"/>
  <circle cx="8" cy="13" r="1" fill="#0F1F37"/>
  <circle cx="16" cy="13" r="1" fill="#0F1F37"/>
  <path d="M12 18C13.6569 18 15 16.6569 15 15H9C9 16.6569 10.3431 18 12 18Z" fill="#0F1F37"/>
  <line x1="3" y1="3" x2="21" y2="21" stroke="#FF0000" stroke-width="2"/>
</svg>
