<svg width="31" height="31" viewBox="0 0 31 31" fill="none" xmlns="http://www.w3.org/2000/svg">
<path d="M0.96875 14.5312V21.7969H21.7969V14.5312H0.96875ZM19.8594 19.8594H2.90625V16.4688H19.8594V19.8594ZM23.25 14.5312H25.1875V21.7969H23.25V14.5312ZM26.6406 14.5312H28.5781V21.7969H26.6406V14.5312ZM23.3365 10.4928C23.1042 10.1424 22.9923 9.72587 23.0176 9.30623C23.0429 8.88659 23.2042 8.4866 23.4769 8.16668C24.0407 7.51094 24.368 6.68485 24.4062 5.82089C24.4444 4.95694 24.1913 4.10519 23.6876 3.40225L23.3334 2.90625H21.1187L21.0086 2.98496L22.1109 4.5283C22.3623 4.87906 22.4885 5.30407 22.4695 5.73516C22.4504 6.16626 22.2871 6.57846 22.0058 6.90567C21.4593 7.54685 21.1362 8.34846 21.0854 9.18944C21.0347 10.0304 21.2589 10.8651 21.7243 11.5674L22.0857 12.1094H24.4143L23.3365 10.4928ZM27.6958 10.4928C27.4636 10.1424 27.3516 9.72587 27.377 9.30623C27.4023 8.88659 27.5635 8.4866 27.8363 8.16668C28.4001 7.51094 28.7274 6.68485 28.7656 5.82089C28.8038 4.95694 28.5507 4.10519 28.0469 3.40225L27.6927 2.90625H25.4781L25.3679 2.98496L26.4703 4.5283C26.7216 4.87906 26.8479 5.30407 26.8288 5.73516C26.8098 6.16626 26.6465 6.57846 26.3652 6.90567C25.8187 7.54685 25.4956 8.34846 25.4448 9.18944C25.394 10.0304 25.6183 10.8651 26.0837 11.5674L26.4451 12.1094H28.7737L27.6958 10.4928Z" fill="#0F1F37"/>
</svg>
