<svg width="28" height="25" viewBox="0 0 28 25" fill="none" xmlns="http://www.w3.org/2000/svg">
<path d="M0 12.234C0 12.7965 0.445 13.1365 0.996 13.1365C1.336 13.1365 1.6055 12.9725 1.84 12.738L13.2775 2.32C13.406 2.191 13.547 2.144 13.699 2.144C13.84 2.144 13.969 2.191 14.109 2.32L25.535 12.738C25.781 12.9725 26.0505 13.1365 26.379 13.1365C26.9295 13.1365 27.375 12.7965 27.375 12.234C27.375 11.8825 27.246 11.66 27.0235 11.4605L22.9685 7.7695V0.8435C22.9685 0.328 22.6405 0 22.125 0H20.59C20.086 0 19.7345 0.328 19.7345 0.8435V4.828L15.0935 0.5855C14.6835 0.199 14.1795 0.0120001 13.6875 0.0120001C13.195 0.0120001 12.703 0.1995 12.281 0.586L0.3515 11.4605C0.1405 11.66 0 11.8825 0 12.234ZM3.3515 22.066C3.3515 23.695 4.336 24.6445 5.988 24.6445H10.7345V16.312C10.7345 15.773 11.0975 15.422 11.6365 15.422H15.7735C16.3125 15.422 16.664 15.773 16.664 16.312V24.6445H21.3985C23.0505 24.6445 24.0235 23.695 24.0235 22.066V13.488L14.074 4.523C13.945 4.406 13.8045 4.3475 13.664 4.3475C13.535 4.3475 13.406 4.406 13.2655 4.535L3.3515 13.5465V22.066Z" fill="white"/>
</svg>
