<svg width="24" height="24" viewBox="0 0 24 24" fill="none" xmlns="http://www.w3.org/2000/svg">
  <path d="M4.5 12C5.88071 12 7 10.8807 7 9.5C7 8.11929 5.88071 7 4.5 7C3.11929 7 2 8.11929 2 9.5C2 10.8807 3.11929 12 4.5 12Z" fill="#0F1F37"/>
  <path d="M9 8C10.3807 8 11.5 6.88071 11.5 5.5C11.5 4.11929 10.3807 3 9 3C7.61929 3 6.5 4.11929 6.5 5.5C6.5 6.88071 7.61929 8 9 8Z" fill="#0F1F37"/>
  <path d="M15 8C16.3807 8 17.5 6.88071 17.5 5.5C17.5 4.11929 16.3807 3 15 3C13.6193 3 12.5 4.11929 12.5 5.5C12.5 6.88071 13.6193 8 15 8Z" fill="#0F1F37"/>
  <path d="M19.5 12C20.8807 12 22 10.8807 22 9.5C22 8.11929 20.8807 7 19.5 7C18.1193 7 17 8.11929 17 9.5C17 10.8807 18.1193 12 19.5 12Z" fill="#0F1F37"/>
  <path d="M17.34 14.86C16.47 13.84 15.74 12.97 15.74 11.87C15.74 11.09 16.11 10.23 16.83 9.44C16.03 9.1 15.14 9 14.24 9C11.73 9 9.42 10.66 8.41 13.12C8.27 13.45 8.17 13.78 8.08 14.12C7.96 14.34 7.84 14.56 7.73 14.78L7.58 15.03C6.75 16.46 5.69 18.14 6.13 20.15C6.33 21.18 6.93 22.11 7.71 22.83C8.19 23.28 8.79 23.5 9.39 23.5C10.59 23.5 11.79 22.65 12.64 21.84C13.14 21.38 13.61 20.87 14.08 20.36C14.68 19.72 15.29 19.05 16.06 18.56C16.69 18.16 17.44 18 18.24 18C19.24 18 20.24 18.3 20.89 18.83C21.39 19.28 22 18.94 21.99 18.3C21.97 16.47 19.92 17.49 19.14 16.6C18.43 15.78 17.92 15.29 17.34 14.86Z" fill="#0F1F37"/>
</svg>
