<svg width="28" height="28" viewBox="0 0 28 28" fill="none" xmlns="http://www.w3.org/2000/svg">
<path fill-rule="evenodd" clip-rule="evenodd" d="M7.77778 6.22222C7.77778 4.57199 8.43333 2.98934 9.60022 1.82245C10.7671 0.655553 12.3498 0 14 0C15.6502 0 17.2329 0.655553 18.3998 1.82245C19.5667 2.98934 20.2222 4.57199 20.2222 6.22222C20.2222 7.87246 19.5667 9.4551 18.3998 10.622C17.2329 11.7889 15.6502 12.4444 14 12.4444C12.3498 12.4444 10.7671 11.7889 9.60022 10.622C8.43333 9.4551 7.77778 7.87246 7.77778 6.22222ZM7.77778 15.5556C5.71498 15.5556 3.73667 16.375 2.27806 17.8336C0.819442 19.2922 0 21.2705 0 23.3333C0 24.571 0.491665 25.758 1.36684 26.6332C2.242 27.5083 3.42899 28 4.66667 28H23.3333C24.571 28 25.758 27.5083 26.6332 26.6332C27.5083 25.758 28 24.571 28 23.3333C28 21.2705 27.1806 19.2922 25.7219 17.8336C24.2633 16.375 22.285 15.5556 20.2222 15.5556H7.77778Z" fill="white"/>
</svg>
