<svg width="22" height="28" viewBox="0 0 22 28" fill="none" xmlns="http://www.w3.org/2000/svg">
<path d="M22 8.17215C22.0024 6.37346 21.1645 4.62454 19.6164 3.19707C18.0683 1.76959 15.8967 0.743453 13.4389 0.278044C10.981 -0.187365 8.3746 -0.065993 6.02438 0.623307C3.67416 1.31261 1.71173 2.53125 0.4419 4.08994C0.00430879 4.62602 -0.11411 5.26302 0.112697 5.86082C0.339505 6.45861 0.892959 6.96823 1.6513 7.27756C2.40965 7.5869 3.31077 7.67061 4.15642 7.51028C5.00207 7.34995 5.72299 6.95871 6.16059 6.42263C6.59529 5.89038 7.22065 5.44846 7.97372 5.14134C8.72679 4.83421 9.58101 4.67272 10.4504 4.67312C11.7632 4.67312 13.0222 5.04176 13.9505 5.69796C14.8787 6.35416 15.4002 7.24415 15.4002 8.17215C15.4002 9.10015 14.8787 9.99014 13.9505 10.6463C13.0222 11.3025 11.7632 11.6712 10.4504 11.6712H10.4405C10.2279 11.6871 10.0179 11.7175 9.81355 11.7622C9.59186 11.7776 9.37295 11.8089 9.16018 11.8555C8.97922 11.9256 8.80798 12.0076 8.64869 12.1004C8.45905 12.1734 8.28 12.2593 8.11411 12.357C7.96565 12.4823 7.83625 12.6184 7.72803 12.7629C7.60776 12.8681 7.50066 12.9805 7.40794 13.0988C7.33548 13.2595 7.28791 13.4253 7.26604 13.5933C7.21022 13.7274 7.17157 13.8648 7.15055 14.0039V16.3366L7.15715 16.3622V17.5076C7.1589 18.1254 7.50733 18.7176 8.12599 19.154C8.74465 19.5905 9.58299 19.8356 10.457 19.8356H10.4669C10.9003 19.835 11.3292 19.774 11.7292 19.6562C12.1293 19.5384 12.4925 19.3661 12.7984 19.1491C13.1042 18.932 13.3465 18.6745 13.5115 18.3913C13.6766 18.108 13.7611 17.8046 13.7602 17.4982L13.7536 15.954C16.1295 15.4566 18.2151 14.4308 19.7007 13.0289C21.1863 11.627 21.9926 9.92377 22 8.17215ZM8.13061 24.0111C7.66724 24.336 7.35055 24.7507 7.22058 25.2028C7.09061 25.6549 7.15321 26.1241 7.40046 26.5511C7.6477 26.978 8.06849 27.3436 8.60962 27.6015C9.15074 27.8594 9.7879 27.9981 10.4405 28C11.3149 27.9937 12.1529 27.7518 12.7834 27.3235C13.3961 26.881 13.7393 26.2865 13.7393 25.6673C13.7393 25.0481 13.3961 24.4536 12.7834 24.0111C12.1518 23.5949 11.3205 23.3635 10.457 23.3635C9.59358 23.3635 8.76224 23.5949 8.13061 24.0111Z" fill="white"/>
</svg>
