<svg width="29" height="29" viewBox="0 0 29 29" fill="none" xmlns="http://www.w3.org/2000/svg">
<path d="M10.9102 21.1914C8.05932 21.1914 5.64677 20.2038 3.67258 18.2285C1.69838 16.2533 0.710764 13.8407 0.709718 10.9909C0.708671 8.141 1.69629 5.72844 3.67258 3.7532C5.64886 1.77796 8.06142 0.790344 10.9102 0.790344C13.7591 0.790344 16.1721 1.77796 18.1495 3.7532C20.1268 5.72844 21.1139 8.141 21.1108 10.9909C21.1108 12.1417 20.9277 13.2271 20.5615 14.2472C20.1953 15.2672 19.6984 16.1696 19.0707 16.9542L27.8588 25.7424C28.1465 26.0301 28.2904 26.3963 28.2904 26.8409C28.2904 27.2855 28.1465 27.6517 27.8588 27.9394C27.5711 28.2271 27.2049 28.371 26.7603 28.371C26.3156 28.371 25.9495 28.2271 25.6618 27.9394L16.8736 19.1513C16.089 19.779 15.1866 20.276 14.1666 20.6421C13.1465 21.0083 12.0611 21.1914 10.9102 21.1914ZM10.9102 18.0528C12.8719 18.0528 14.5395 17.3665 15.9132 15.9938C17.2869 14.6212 17.9732 12.9536 17.9721 10.9909C17.9711 9.02818 17.2848 7.36105 15.9132 5.98947C14.5416 4.61789 12.874 3.93106 10.9102 3.92897C8.94651 3.92687 7.27938 4.61371 5.90885 5.98947C4.53831 7.36524 3.85148 9.03237 3.84834 10.9909C3.8452 12.9494 4.53204 14.617 5.90885 15.9938C7.28565 17.3706 8.95279 18.057 10.9102 18.0528Z" fill="white"/>
</svg>
