<svg width="18" height="17" viewBox="0 0 18 17" fill="none" xmlns="http://www.w3.org/2000/svg">
<path d="M9.17367 13.7L5.02367 16.2C4.84034 16.3167 4.64867 16.3667 4.44867 16.35C4.24867 16.3333 4.07367 16.2667 3.92367 16.15C3.77367 16.0333 3.657 15.8877 3.57367 15.713C3.49034 15.5383 3.47367 15.3423 3.52367 15.125L4.62367 10.4L0.948669 7.225C0.782002 7.075 0.678002 6.904 0.636669 6.712C0.595335 6.52 0.607669 6.33267 0.673669 6.15C0.739669 5.96733 0.839669 5.81733 0.973669 5.7C1.10767 5.58267 1.291 5.50767 1.52367 5.475L6.37367 5.05L8.24867 0.6C8.332 0.4 8.46134 0.25 8.63667 0.15C8.812 0.0499999 8.991 0 9.17367 0C9.35634 0 9.53534 0.0499999 9.71067 0.15C9.886 0.25 10.0153 0.4 10.0987 0.6L11.9737 5.05L16.8237 5.475C17.057 5.50833 17.2403 5.58333 17.3737 5.7C17.507 5.81667 17.607 5.96667 17.6737 6.15C17.7403 6.33333 17.753 6.521 17.7117 6.713C17.6703 6.905 17.566 7.07567 17.3987 7.225L13.7237 10.4L14.8237 15.125C14.8737 15.3417 14.857 15.5377 14.7737 15.713C14.6903 15.8883 14.5737 16.034 14.4237 16.15C14.2737 16.266 14.0987 16.3327 13.8987 16.35C13.6987 16.3673 13.507 16.3173 13.3237 16.2L9.17367 13.7Z" fill="#0F1F37"/>
</svg>
