<svg width="18" height="17" viewBox="0 0 18 17" fill="none" xmlns="http://www.w3.org/2000/svg">
<path
		d="M9.17334 0.5C9.26024 0.5 9.35539 0.522393 9.46338 0.583984C9.51721 0.614719 9.56283 0.65718 9.60107 0.720703L9.63721 0.791992L9.63818 0.793945L11.5132 5.24414L11.6304 5.52148L11.9302 5.54785L16.7583 5.9707C16.9231 5.99499 17.0048 6.04153 17.0444 6.07617C17.1081 6.13185 17.1628 6.209 17.2036 6.32129C17.2378 6.41534 17.2447 6.50701 17.2231 6.60742C17.2072 6.68151 17.1657 6.76243 17.0659 6.85156L13.397 10.0215L13.1685 10.2188L13.2368 10.5137L14.3364 15.2383C14.3647 15.3613 14.3497 15.4393 14.3218 15.498C14.2713 15.6042 14.2041 15.6881 14.1177 15.7549C14.0483 15.8085 13.9659 15.842 13.856 15.8516C13.7753 15.8585 13.6919 15.8424 13.5933 15.7793L13.3237 16.2002L13.5933 15.7783L13.5815 15.7715L9.43213 13.2715L9.17334 13.1162L8.91553 13.2715L4.76611 15.7715L5.02393 16.2002L4.76514 15.7715L4.75537 15.7783C4.65613 15.8415 4.57165 15.8584 4.48975 15.8516C4.38093 15.8424 4.2999 15.8085 4.23096 15.7549C4.1436 15.6869 4.07537 15.6037 4.0249 15.498C3.99745 15.4405 3.98255 15.3621 4.01123 15.2373L4.01025 15.2363L5.11084 10.5137L5.1792 10.2188L4.95068 10.0215L1.27588 6.84668C1.18114 6.7593 1.14123 6.67959 1.12549 6.60645C1.10375 6.50523 1.11041 6.41358 1.14404 6.32031C1.18396 6.20982 1.23853 6.13282 1.30322 6.07617C1.3436 6.04086 1.42486 5.99433 1.5874 5.9707L6.41748 5.54785L6.71729 5.52148L6.83447 5.24414L8.70947 0.793945L8.71045 0.791992C8.75455 0.686318 8.81237 0.624996 8.88428 0.583984C8.9921 0.5225 9.08655 0.500057 9.17334 0.5Z"
		stroke="#0f1f37" />
</svg>
