<svg width="30" height="24" viewBox="0 0 30 24" fill="none" xmlns="http://www.w3.org/2000/svg">
<path d="M8 2.66659H19.3333C21.848 2.66659 23.104 2.66659 23.8853 3.44792C24.6667 4.22925 24.6667 5.48525 24.6667 7.99992V11.9999C24.6667 14.5146 24.6667 15.7706 23.8853 16.5519C23.104 17.3333 21.848 17.3333 19.3333 17.3333H15.3333C12.8187 17.3333 11.5627 17.3333 10.7813 16.5519C10 15.7706 10 14.5146 10 11.9999V6.66659M8 2.66659C7.46957 2.66659 6.96086 2.8773 6.58579 3.25237C6.21071 3.62744 6 4.13615 6 4.66659V6.66659H10M8 2.66659C8.53043 2.66659 9.03914 2.8773 9.41421 3.25237C9.78929 3.62744 10 4.13615 10 4.66659V6.66659M22 17.3333C22 19.8479 22 21.1039 21.2187 21.8853C20.4373 22.6666 19.1813 22.6666 16.6667 22.6666H11.3333C8.81867 22.6666 7.56267 22.6666 6.78133 21.8853C6 21.1039 6 19.8479 6 17.3333V10.6666M28.6667 1.33325V2.66659C28.6667 3.90925 28.6667 4.53059 28.464 5.01992C28.33 5.34368 28.1335 5.63785 27.8857 5.88562C27.6379 6.13339 27.3438 6.3299 27.02 6.46392C26.5307 6.66659 25.9093 6.66659 24.6667 6.66659M2 1.33325V2.66659C2 3.90925 2 4.53059 2.20267 5.01992C2.33668 5.34368 2.53319 5.63785 2.78096 5.88562C3.02873 6.13339 3.32291 6.3299 3.64667 6.46392C4.136 6.66659 4.75733 6.66659 6 6.66659" fill="#0F1F37"/>
<path d="M8 2.66659H19.3333C21.848 2.66659 23.104 2.66659 23.8853 3.44792C24.6667 4.22925 24.6667 5.48525 24.6667 7.99992V11.9999C24.6667 14.5146 24.6667 15.7706 23.8853 16.5519C23.104 17.3333 21.848 17.3333 19.3333 17.3333H15.3333C12.8187 17.3333 11.5627 17.3333 10.7813 16.5519C10 15.7706 10 14.5146 10 11.9999V6.66659M8 2.66659C7.46957 2.66659 6.96086 2.8773 6.58579 3.25237C6.21071 3.62744 6 4.13615 6 4.66659V6.66659M8 2.66659C8.53043 2.66659 9.03914 2.8773 9.41421 3.25237C9.78929 3.62744 10 4.13615 10 4.66659V6.66659M10 6.66659H6M6 6.66659C4.75733 6.66659 4.136 6.66659 3.64667 6.46392C3.32291 6.3299 3.02873 6.13339 2.78096 5.88562C2.53319 5.63785 2.33668 5.34368 2.20267 5.01992C2 4.53059 2 3.90925 2 2.66659V1.33325M22 17.3333C22 19.8479 22 21.1039 21.2187 21.8853C20.4373 22.6666 19.1813 22.6666 16.6667 22.6666H11.3333C8.81867 22.6666 7.56267 22.6666 6.78133 21.8853C6 21.1039 6 19.8479 6 17.3333V10.6666M28.6667 1.33325V2.66659C28.6667 3.90925 28.6667 4.53059 28.464 5.01992C28.33 5.34368 28.1335 5.63785 27.8857 5.88562C27.6379 6.13339 27.3438 6.3299 27.02 6.46392C26.5307 6.66659 25.9093 6.66659 24.6667 6.66659" stroke="#0F1F37" stroke-width="2.5" stroke-linecap="round" stroke-linejoin="round"/>
</svg>
