<svg width="27" height="25" viewBox="0 0 27 25" fill="none" xmlns="http://www.w3.org/2000/svg">
	<path
		d="M2.66699 0.833252H24C24.5246 0.833252 24.9742 0.991932 25.3662 1.31958L25.5303 1.47095C25.9063 1.84696 26.1122 2.27705 26.1572 2.77954L26.167 2.99927V19.0002C26.1669 19.5999 25.959 20.101 25.5303 20.5305C25.1553 20.9062 24.7248 21.1125 24.2207 21.1575L24.001 21.1663H18.167V23.0002C18.1669 23.2203 18.1053 23.3913 17.9844 23.5364L17.9287 23.5969C17.7908 23.7347 17.6309 23.8124 17.4258 23.8293L17.335 23.8333H9.33301C9.11316 23.8332 8.94287 23.772 8.79883 23.6516L8.73828 23.5959C8.60041 23.4575 8.52175 23.2965 8.50391 23.0901L8.5 22.9983V21.1663H2.66699C2.06726 21.1663 1.56633 20.9591 1.1377 20.5305C0.762558 20.1554 0.555927 19.7245 0.509766 19.22L0.5 18.9993V3.00024C0.5 2.47564 0.658818 2.02625 0.986328 1.63501L1.1377 1.47095C1.51385 1.09555 1.94431 0.88914 2.44727 0.843018L2.66699 0.833252ZM2.16699 19.5002H24.5V2.50024H2.16699V19.5002Z"
		fill="#0f1f37" stroke="#0f1f37" />
</svg>