<svg width="24" height="24" viewBox="0 0 24 24" fill="none" xmlns="http://www.w3.org/2000/svg">
  <path d="M12 22C17.5228 22 22 17.5228 22 12C22 6.47715 17.5228 2 12 2C6.47715 2 2 6.47715 2 12C2 17.5228 6.47715 22 12 22Z" fill="#43C618"/>
  <path d="M16.03 8.53L10.71 13.85L7.97 11.11C7.68 10.82 7.21 10.82 6.92 11.11C6.63 11.4 6.63 11.87 6.92 12.16L10.21 15.45C10.35 15.59 10.53 15.65 10.71 15.65C10.89 15.65 11.07 15.59 11.21 15.45L17.08 9.58C17.37 9.29 17.37 8.82 17.08 8.53C16.79 8.24 16.32 8.24 16.03 8.53Z" fill="white"/>
</svg>
