<svg width="116" height="116" viewBox="0 0 116 116" fill="none" xmlns="http://www.w3.org/2000/svg">
	<path
		d="M52.2 0C44.5087 0 37.1325 3.05535 31.6939 8.4939C26.2553 13.9325 23.2 21.3087 23.2 29C23.2 36.6913 26.2553 44.0675 31.6939 49.5061C37.1325 54.9447 44.5087 58 52.2 58C59.8913 58 67.2675 54.9447 72.7061 49.5061C78.1447 44.0675 81.2 36.6913 81.2 29C81.2 21.3087 78.1447 13.9325 72.7061 8.4939C67.2675 3.05535 59.8913 0 52.2 0ZM52.2 63.8C38.309 63.8 25.665 67.8252 16.3676 73.4976C11.7276 76.328 7.7604 79.6688 4.8952 83.2996C2.0764 86.8608 0 91.1354 0 95.7C0 100.601 2.3838 104.464 5.8174 107.219C9.0654 109.829 13.3516 111.557 17.9046 112.764C27.057 115.182 39.2718 116 52.2 116L56.173 115.971C57.1444 115.958 58.0968 115.701 58.943 115.223C59.7891 114.746 60.5018 114.064 61.0156 113.239C61.5294 112.415 61.828 111.475 61.8838 110.505C61.9396 109.535 61.7509 108.567 61.335 107.689C59.1357 103.034 57.9966 97.9485 58 92.8C58 85.5384 60.2214 78.8104 64.0146 73.2366C64.5784 72.4083 64.918 71.4481 65.0004 70.4495C65.0827 69.4509 64.9049 68.448 64.4844 67.5385C64.0638 66.6291 63.4148 65.8441 62.6006 65.26C61.7865 64.676 60.8349 64.3129 59.8386 64.206C57.3407 63.9353 54.7945 63.8 52.2 63.8ZM94.6328 69.8958C93.4431 69.4995 92.1569 69.4995 90.9672 69.8958L73.5672 75.6958C72.4118 76.0806 71.4069 76.8194 70.6948 77.8073C69.9827 78.7952 69.5997 79.9822 69.6 81.2V90.8918C69.5992 97.0956 71.8861 103.082 76.0232 107.705C80.1603 112.328 85.857 115.263 92.0228 115.948C92.5448 116.006 93.0629 116.006 93.5772 115.948C99.743 115.263 105.44 112.328 109.577 107.705C113.714 103.082 116.001 97.0956 116 90.8918V81.2C116 79.9822 115.617 78.7952 114.905 77.8073C114.193 76.8194 113.188 76.0806 112.033 75.6958L94.6328 69.8958Z"
		fill="#0f1f37" />
</svg>