<svg width="31" height="23" viewBox="0 0 31 23" fill="none" xmlns="http://www.w3.org/2000/svg">
<path d="M15.168 16.5C15.9723 16.5 16.6335 16.7721 17.1816 17.3203C17.7297 17.8684 18.0019 18.5289 18.002 19.333C18.002 20.1373 17.7298 20.7985 17.1816 21.3467C16.6335 21.8948 15.9722 22.167 15.168 22.167C14.4644 22.1669 13.8708 21.9583 13.3662 21.5391L13.1553 21.3467C12.6071 20.7985 12.335 20.1373 12.335 19.333C12.335 18.6294 12.5436 18.0359 12.9629 17.5312L13.1553 17.3203C13.7033 16.7722 14.3639 16.5001 15.168 16.5ZM15.168 8.5C16.5787 8.5 17.9243 8.69759 19.2061 9.09082L19.752 9.27148C21.0234 9.72347 22.189 10.3223 23.25 11.0684L23.6982 11.3975L23.7021 11.4004C23.9856 11.6131 24.1368 11.8668 24.1758 12.1865L24.1855 12.3281C24.193 12.6804 24.0892 12.9862 23.8564 13.2627L23.749 13.3789L23.748 13.3799C23.4655 13.6624 23.1236 13.8084 22.6914 13.8174C22.296 13.8256 21.9439 13.7349 21.624 13.5449L21.4893 13.457L21.4844 13.4541L21.1475 13.2324C20.4664 12.8024 19.7341 12.4457 18.9521 12.1611L18.5566 12.0244C17.4818 11.6739 16.351 11.5 15.168 11.5C14.1328 11.5 13.1381 11.6332 12.1855 11.9014L11.7803 12.0244C10.8485 12.3283 9.98413 12.7307 9.18945 13.2324L8.85254 13.4541L8.84863 13.457C8.54037 13.6728 8.2018 13.7874 7.82129 13.8008H7.65527C7.22254 13.7835 6.87864 13.6329 6.59473 13.3516C6.30652 13.0444 6.16801 12.6967 6.16797 12.2842C6.16797 11.9492 6.27986 11.6835 6.52344 11.46L6.63574 11.3662L6.63867 11.3643C7.67016 10.5766 8.80534 9.93989 10.0459 9.4541L10.584 9.25488C11.8482 8.81455 13.1753 8.56633 14.5674 8.51172L15.168 8.5ZM15.168 0.5C17.7198 0.5 20.1276 0.89216 22.3936 1.67383L22.8447 1.83496C25.0968 2.6704 27.1316 3.82954 28.9502 5.3125L29.3105 5.61426H29.3115C29.6122 5.86988 29.7751 6.16084 29.8223 6.50293L29.8359 6.65332C29.8504 7.01511 29.7492 7.32311 29.5205 7.59766L29.415 7.71289C29.1325 7.99539 28.7905 8.14132 28.3584 8.15039C27.9234 8.15944 27.537 8.02813 27.1816 7.74316H27.1807C25.6398 6.48133 23.9242 5.48605 22.0361 4.75684L21.6562 4.61426C19.7384 3.9181 17.717 3.54908 15.5947 3.50488L15.1689 3.5C12.8905 3.49909 10.7268 3.86977 8.68164 4.61426C6.64419 5.35598 4.80146 6.39909 3.15625 7.74316C2.80062 8.02766 2.41322 8.15876 1.97754 8.15039L1.82031 8.1416C1.51316 8.10961 1.2545 7.99999 1.03125 7.81348L0.922852 7.71387L0.921875 7.71289C0.656504 7.44745 0.520555 7.15156 0.501953 6.80469L0.500977 6.65332C0.515269 6.296 0.643336 5.9927 0.905273 5.72656L1.02539 5.61426H1.02637C2.81718 4.088 4.82272 2.88545 7.0459 2.00684L7.49316 1.83496C9.89001 0.945837 12.4471 0.50005 15.168 0.5Z" fill="#0F1F37" stroke="#0F1F37"/>
</svg>
