<svg width="30" height="29" viewBox="0 0 30 29" fill="none" xmlns="http://www.w3.org/2000/svg">
<path d="M2.91667 28.4251C2.11458 28.4251 1.42819 28.1397 0.8575 27.569C0.286806 26.9983 0.000972222 26.3115 0 25.5084V9.46674C0 8.66465 0.285833 7.97826 0.8575 7.40757C1.42917 6.83687 2.11556 6.55104 2.91667 6.55007H8.75V3.6334C8.75 2.83132 9.03583 2.14493 9.6075 1.57424C10.1792 1.00354 10.8656 0.717708 11.6667 0.716736H17.5C18.3021 0.716736 18.989 1.00257 19.5606 1.57424C20.1323 2.1459 20.4176 2.83229 20.4167 3.6334V6.55007H26.25C27.0521 6.55007 27.739 6.8359 28.3106 7.40757C28.8823 7.97924 29.1676 8.66563 29.1667 9.46674V25.5084C29.1667 26.3105 28.8813 26.9974 28.3106 27.569C27.7399 28.1407 27.0531 28.426 26.25 28.4251H2.91667ZM2.91667 25.5084H26.25V9.46674H2.91667V25.5084ZM11.6667 6.55007H17.5V3.6334H11.6667V6.55007Z" fill="#0F1F37"/>
</svg>
