<svg width="24" height="24" viewBox="0 0 24 24" fill="none" xmlns="http://www.w3.org/2000/svg">
	<path
		d="M10 10C10 11.1046 9.10457 12 8 12C6.89543 12 6 11.1046 6 10C6 8.89543 6.89543 8 8 8C9.10457 8 10 8.89543 10 10Z"
		fill="#0f1f37" />
	<path
		d="M14 10C14 13.3137 11.3137 16 8 16C4.68629 16 2 13.3137 2 10C2 6.68629 4.68629 4 8 4C11.3137 4 14 6.68629 14 10Z"
		fill="none" stroke="#0f1f37" stroke-width="2" />
	<path d="M14 10H20C21.1046 10 22 9.10457 22 8V8C22 6.89543 21.1046 6 20 6H14V10Z"
		fill="#0f1f37" />
	<path d="M16 6L16 4" stroke="#0f1f37" stroke-width="2" stroke-linecap="round" />
	<path d="M19 6L19 4" stroke="#0f1f37" stroke-width="2" stroke-linecap="round" />
	<path d="M8 16V19" stroke="#0f1f37" stroke-width="2" stroke-linecap="round" />
	<path d="M5 19H11" stroke="#0f1f37" stroke-width="2" stroke-linecap="round" />
</svg>