<svg width="29" height="29" viewBox="0 0 29 29" fill="none" xmlns="http://www.w3.org/2000/svg">
	<path
		d="M3.10707 19.6785C4.2505 19.6785 5.1785 18.2865 5.1785 16.5714C5.1785 14.8563 4.2505 13.4643 3.10707 13.4643C1.96364 13.4643 1.03564 14.8563 1.03564 16.5714C1.03564 18.2865 1.96364 19.6785 3.10707 19.6785ZM9.32136 10.3571C10.4648 10.3571 11.3928 8.96511 11.3928 7.24997C11.3928 5.53482 10.4648 4.14282 9.32136 4.14282C8.17793 4.14282 7.24993 5.53482 7.24993 7.24997C7.24993 8.96511 8.17793 10.3571 9.32136 10.3571ZM19.6785 10.3571C20.8219 10.3571 21.7499 8.96511 21.7499 7.24997C21.7499 5.53482 20.8219 4.14282 19.6785 4.14282C18.5351 4.14282 17.6071 5.53482 17.6071 7.24997C17.6071 8.96511 18.5351 10.3571 19.6785 10.3571ZM25.8928 19.6785C27.0362 19.6785 27.9642 18.2865 27.9642 16.5714C27.9642 14.8563 27.0362 13.4643 25.8928 13.4643C24.7494 13.4643 23.8214 14.8563 23.8214 16.5714C23.8214 18.2865 24.7494 19.6785 25.8928 19.6785ZM20.7142 20.7143C20.7142 23.5728 17.3585 24.8571 14.4999 24.8571C11.6414 24.8571 8.28564 23.5728 8.28564 20.7143C8.28564 17.8557 10.3571 13.4643 14.4999 13.4643C18.6428 13.4643 20.7142 17.8557 20.7142 20.7143Z"
		stroke="#0f1f37" stroke-width="2" stroke-linecap="round" stroke-linejoin="round" />
</svg>