<svg width="24" height="24" viewBox="0 0 24 24" fill="none" xmlns="http://www.w3.org/2000/svg">
	<path d="M18 16V18H20V16H18Z" fill="#0f1f37" />
	<path d="M12 18H14V16H12V18Z" fill="#0f1f37" />
	<path d="M2 16H8V18H2V16Z" fill="#0f1f37" />
	<path
		d="M19 12C17.34 12 16 13.34 16 15V16H18V15C18 14.45 18.45 14 19 14C19.55 14 20 14.45 20 15V16H22V15C22 13.34 20.66 12 19 12Z"
		fill="#0f1f37" />
	<path
		d="M14 14H12V12C12 11.45 11.55 11 11 11C10.45 11 10 11.45 10 12V15C10 15.55 10.45 16 11 16H14V14Z"
		fill="#0f1f37" />
	<path
		d="M10 6.67C10 6.3 9.9 5.94 9.76 5.59C9.44 4.87 8.83 4.27 8.11 3.96C7.49 3.71 6.82 3.73 6.21 3.97C5.17 4.36 4.5 5.35 4.5 6.47V7C4.5 7.55 4.95 8 5.5 8C6.05 8 6.5 7.55 6.5 7V6.47C6.5 6.16 6.71 5.9 7 5.82C7.19 5.77 7.39 5.77 7.57 5.85C7.87 5.98 8 6.18 8 6.67V7C8 7.55 8.45 8 9 8C9.55 8 10 7.55 10 7V6.67Z"
		fill="#0f1f37" />
	<path
		d="M6 6.67V7C6 7.55 6.45 8 7 8C7.55 8 8 7.55 8 7V6.67C8 6.3 7.9 5.94 7.76 5.6C7.44 4.87 6.83 4.27 6.11 3.96C5.79 3.82 5.44 3.75 5.1 3.75C5.07 3.75 5.03 3.75 5 3.75C3.34 3.79 2 5.15 2 6.8V7C2 7.55 2.45 8 3 8C3.55 8 4 7.55 4 7V6.8C4 6.21 4.48 5.72 5.07 5.75C5.58 5.78 6 6.22 6 6.73V6.67Z"
		fill="#0f1f37" />
	<line x1="13" y1="5" x2="20" y2="5" stroke="#0f1f37" stroke-width="2" stroke-linecap="round" />
</svg>